# xmcd CD database file
#
# Track frame offsets:
#	182
#	14177
#	29422
#	44110
#	57717
#	71465
#	85277
#	100875
#	113795
#	128117
#	142195
#	152817
#	163117
#	174682
#	187570
#	203742
#
# Disc length: 2938 seconds
#
# Revision: 1
# Processed by: cddbd v1.4PL0 Copyright (c) Steve Scherf et al.
# Submitted via: CDex 1.51
#
DISCID=ec0b7810
DTITLE=Various Artist - Roots Of The Blues (Volume 3)
DYEAR=1900
DGENRE=Blues
TTITLE0=Lonnie Johnson "Life Saver Blues". 1927 
TTITLE1=Missisipi John Hurt "Frankie". 1928
TTITLE2=Tommy Johnson "Big Fat Mama Blues". 1928
TTITLE3=Blind Blake "Blind Arthur's Breakdown". 1929
TTITLE4=Sleepy John Estes "Milk Cow Blues". 1930
TTITLE5=Son House "Preachin' The Blues". 1930
TTITLE6=Bessie Smith "Do Your Duty". 1933
TTITLE7=Cripple Clarence Lofton "Brown Skin Girls". 1935
TTITLE8=Casey Bill Weldon "Backdoor Blues". 1936
TTITLE9=Oscar Woods "Evil Hearted Woman Blues".1936
TTITLE10=Robert Johnson "Love In Vain. 1937
TTITLE11=Sonny Terry "Fox Chase". 1938
TTITLE12=Big Bill Broonzy "I Done Got Wise". 1939
TTITLE13=Jimmy Yancey "Yancey Stomp". 1939
TTITLE14=Leadbelly "Leaving Blues". 1940
TTITLE15=Muddy Waters "You Gonna Miss Me When I'm Gone". 1942
EXTD=
EXTT0=
EXTT1=
EXTT2=
EXTT3=
EXTT4=
EXTT5=
EXTT6=
EXTT7=
EXTT8=
EXTT9=
EXTT10=
EXTT11=
EXTT12=
EXTT13=
EXTT14=
EXTT15=
PLAYORDER=
